<mxfile host="app.diagrams.net" modified="2024-03-27T22:42:13.097Z" agent="Mozilla/5.0 (Windows NT 10.0; Win64; x64) AppleWebKit/537.36 (KHTML, like Gecko) Chrome/123.0.0.0 Safari/537.36" version="24.2.0" etag="l0BEpmM-YFY_bvEi7t3_" type="github">
  <diagram name="Trang-1" id="t4javLK8Xm8sfpFiev-7">
    <mxGraphModel>
      <root>
        <mxCell id="0" />
        <mxCell id="1" parent="0" />
      </root>
    </mxGraphModel>
  </diagram>
</mxfile>
